<?xml version="1.0" encoding="UTF-8" standalone="no"?>
<!-- Created with Inkscape (http://www.inkscape.org/) -->

<svg
   xmlns:dc="http://purl.org/dc/elements/1.1/"
   xmlns:cc="http://creativecommons.org/ns#"
   xmlns:rdf="http://www.w3.org/1999/02/22-rdf-syntax-ns#"
   xmlns:svg="http://www.w3.org/2000/svg"
   xmlns="http://www.w3.org/2000/svg"
   xmlns:xlink="http://www.w3.org/1999/xlink"
   xmlns:sodipodi="http://sodipodi.sourceforge.net/DTD/sodipodi-0.dtd"
   xmlns:inkscape="http://www.inkscape.org/namespaces/inkscape"
   width="116.50407mm"
   height="15.0996mm"
   viewBox="0 0 116.50407 15.0996"
   version="1.1"
   id="svg8"
   inkscape:version="0.92.3 (unknown)"
   sodipodi:docname="logo.svg">
  <defs
     id="defs2">
    <linearGradient
       inkscape:collect="always"
       id="linearGradient1074">
      <stop
         style="stop-color:#ff7f2a;stop-opacity:1;"
         offset="0"
         id="stop1070" />
      <stop
         style="stop-color:#ff6138;stop-opacity:1"
         offset="1"
         id="stop1072" />
    </linearGradient>
    <linearGradient
       gradientUnits="userSpaceOnUse"
       y2="-531.72479"
       x2="1597.5709"
       y1="-531.72479"
       x1="1378.4865"
       id="linearGradient6834"
       xlink:href="#linearGradient1074"
       inkscape:collect="always" />
  </defs>
  <sodipodi:namedview
     id="base"
     pagecolor="#ffffff"
     bordercolor="#666666"
     borderopacity="1.0"
     inkscape:pageopacity="0.0"
     inkscape:pageshadow="2"
     inkscape:zoom="1.5467961"
     inkscape:cx="237.55684"
     inkscape:cy="-98.906206"
     inkscape:document-units="mm"
     inkscape:current-layer="text825"
     showgrid="false"
     fit-margin-top="0"
     fit-margin-left="0"
     fit-margin-right="0"
     fit-margin-bottom="0"
     inkscape:window-width="1853"
     inkscape:window-height="1025"
     inkscape:window-x="67"
     inkscape:window-y="27"
     inkscape:window-maximized="1" />
  <metadata
     id="metadata5">
    <rdf:RDF>
      <cc:Work
         rdf:about="">
        <dc:format>image/svg+xml</dc:format>
        <dc:type
           rdf:resource="http://purl.org/dc/dcmitype/StillImage" />
        <dc:title></dc:title>
      </cc:Work>
    </rdf:RDF>
  </metadata>
  <g
     inkscape:label="Layer 1"
     inkscape:groupmode="layer"
     id="layer1"
     transform="translate(-48.825166,-193.88298)">
    <flowRoot
       xml:space="preserve"
       id="flowRoot815"
       style="font-style:normal;font-variant:normal;font-weight:bold;font-stretch:normal;font-size:15px;line-height:125%;font-family:sans-serif;-inkscape-font-specification:'sans-serif, Bold';font-variant-ligatures:normal;font-variant-caps:normal;font-variant-numeric:normal;font-feature-settings:normal;text-align:justify;letter-spacing:0px;word-spacing:0px;writing-mode:lr-tb;text-anchor:start;fill:#000000;fill-opacity:1;stroke:none;stroke-width:1px;stroke-linecap:butt;stroke-linejoin:miter;stroke-opacity:1"
       transform="scale(0.26458333)"><flowRegion
         id="flowRegion817"><rect
           id="rect819"
           width="808.12201"
           height="285.75195"
           x="90.509666"
           y="398.44235" /></flowRegion><flowPara
         id="flowPara821"></flowPara></flowRoot>    <g
       aria-label="AUTOM4TA"
       style="font-style:normal;font-variant:normal;font-weight:bold;font-stretch:normal;font-size:21.44828606px;line-height:125%;font-family:sans-serif;-inkscape-font-specification:'sans-serif, Bold';font-variant-ligatures:normal;font-variant-caps:normal;font-variant-numeric:normal;font-feature-settings:normal;text-align:justify;letter-spacing:0px;word-spacing:0px;writing-mode:lr-tb;text-anchor:start;fill:#225378;fill-opacity:1;stroke:none;stroke-width:1.42988563px;stroke-linecap:butt;stroke-linejoin:miter;stroke-opacity:1"
       id="text825">
      <path
         d="m 59.527861,208.81099 -0.87938,-2.78828 h -5.25483 l -0.836483,2.78828 h -3.732002 l 4.718623,-14.75642 h 5.061795 l 4.718623,14.75642 z M 56.053238,197.3576 h -0.107241 l -1.694415,5.6409 h 3.517519 z"
         style="font-style:normal;font-variant:normal;font-weight:bold;font-stretch:normal;font-family:Saira;-inkscape-font-specification:'Saira Bold';fill:#225378;fill-opacity:1;stroke-width:1.42988563px"
         id="path2363"
         inkscape:connector-curvature="0" />
      <path
         d="m 76.759548,194.05457 v 8.086 q 0,2.95987 -0.364621,4.33256 -0.343172,1.35124 -1.565725,1.93034 -1.222552,0.57911 -3.989381,0.57911 -2.766829,0 -3.989381,-0.57911 -1.222552,-0.5791 -1.587173,-1.93034 -0.343173,-1.37269 -0.343173,-4.33256 v -8.086 h 3.732002 v 8.87959 q 0,1.52283 0.107241,2.10193 0.107242,0.5791 0.536207,0.77214 0.428966,0.19303 1.544277,0.19303 1.115311,0 1.544277,-0.19303 0.428965,-0.19304 0.536207,-0.77214 0.107241,-0.5791 0.107241,-2.10193 v -8.87959 z"
         style="font-style:normal;font-variant:normal;font-weight:bold;font-stretch:normal;font-family:Saira;-inkscape-font-specification:'Saira Bold';fill:#225378;fill-opacity:1;stroke-width:1.42988563px"
         id="path2365"
         inkscape:connector-curvature="0" />
      <path
         d="m 82.647103,208.81099 v -11.58208 h -4.075174 v -3.17434 h 11.903798 v 3.17434 h -4.096622 v 11.58208 z"
         style="font-style:normal;font-variant:normal;font-weight:bold;font-stretch:normal;font-family:Saira;-inkscape-font-specification:'Saira Bold';fill:#225378;fill-opacity:1;stroke-width:1.42988563px"
         id="path2367"
         inkscape:connector-curvature="0" />
      <path
         d="m 98.388805,208.98258 q -3.110001,0 -4.439795,-0.64345 -1.308345,-0.6649 -1.651518,-2.10193 -0.321724,-1.43704 -0.321724,-4.80442 0,-3.36738 0.321724,-4.80442 0.343173,-1.43703 1.651518,-2.08048 1.329794,-0.6649 4.439795,-0.6649 3.110005,0 4.418345,0.6649 1.3298,0.64345 1.65152,2.08048 0.32172,1.43704 0.32172,4.80442 0,3.36738 -0.32172,4.80442 -0.32172,1.43703 -1.65152,2.10193 -1.30834,0.64345 -4.418345,0.64345 z m 0,-3.02421 q 1.394139,0 1.866005,-0.21449 0.47186,-0.23593 0.60055,-1.05096 0.12869,-0.81504 0.12869,-3.26014 0,-2.44511 -0.12869,-3.26014 -0.12869,-0.81504 -0.60055,-1.02952 -0.471866,-0.23593 -1.866005,-0.23593 -1.394138,0 -1.887449,0.23593 -0.49331,0.21448 -0.622,1.05097 -0.12869,0.83648 -0.12869,3.23869 0,2.40221 0.12869,3.23869 0.12869,0.83648 0.622,1.07241 0.493311,0.21449 1.887449,0.21449 z"
         style="font-style:normal;font-variant:normal;font-weight:bold;font-stretch:normal;font-family:Saira;-inkscape-font-specification:'Saira Bold';fill:#225378;fill-opacity:1;stroke-width:1.42988563px"
         id="path2369"
         inkscape:connector-curvature="0" />
      <path
         d="m 120.09514,208.81099 v -9.39435 H 119.945 l -3.1529,9.39435 h -2.53089 l -3.1529,-9.39435 h -0.15014 v 9.39435 h -3.47462 v -14.75642 h 5.12614 l 2.91697,8.51497 h 0.15013 l 2.89552,-8.51497 h 5.10469 v 14.75642 z"
         style="font-style:normal;font-variant:normal;font-weight:bold;font-stretch:normal;font-family:Saira;-inkscape-font-specification:'Saira Bold';fill:#eb7f00;fill-opacity:1;stroke-width:1.42988563px"
         id="path2371"
         inkscape:connector-curvature="0" />
      <path
         d="m 132.91016,208.81099 v -2.91697 h -6.99214 v -2.63814 l 5.01889,-9.20131 h 4.03228 l -5.14759,8.87959 h 3.1958 l 1.07241,-3.45318 h 2.50945 v 3.45318 h 1.82311 v 2.95986 h -1.82311 v 2.91697 z"
         style="font-style:normal;font-variant:normal;font-weight:bold;font-stretch:normal;font-family:Saira;-inkscape-font-specification:'Saira Bold';fill:#eb7f00;fill-opacity:1;stroke-width:1.42988563px"
         id="path2373"
         inkscape:connector-curvature="0" />
      <path
         d="m 143.4731,208.81099 v -11.58208 h -4.07517 v -3.17434 h 11.9038 v 3.17434 h -4.09663 v 11.58208 z"
         style="font-style:normal;font-variant:normal;font-weight:bold;font-stretch:normal;font-family:Saira;-inkscape-font-specification:'Saira Bold';fill:#225378;fill-opacity:1;stroke-width:1.42988563px"
         id="path2375"
         inkscape:connector-curvature="0" />
      <path
         d="m 161.5329,208.81099 -0.87938,-2.78828 h -5.25483 l -0.83649,2.78828 h -3.732 l 4.71862,-14.75642 h 5.0618 l 4.71862,14.75642 z m -3.47463,-11.45339 h -0.10724 l -1.69441,5.6409 h 3.51752 z"
         style="font-style:normal;font-variant:normal;font-weight:bold;font-stretch:normal;font-family:Saira;-inkscape-font-specification:'Saira Bold';fill:#225378;fill-opacity:1;stroke-width:1.42988563px"
         id="path2377"
         inkscape:connector-curvature="0" />
    </g>
  </g>
</svg>
